<?xml version="1.0" encoding="UTF-8"?>
<svg id="Layer_1" data-name="Layer 1" xmlns="http://www.w3.org/2000/svg" viewBox="0 0 367.9 165.8">
  <defs>
    <style>
      .cls-1 {
        fill: #8c9d7d;
      }

      .cls-1, .cls-2 {
        stroke: #f9f050;
        stroke-miterlimit: 10;
      }

      .cls-2 {
        fill: #f0a;
      }

      .cls-3 {
        fill: #fa0;
      }

      .cls-3, .cls-4 {
        stroke-width: 0px;
      }

      .cls-4 {
        fill: #ffe000;
      }
    </style>
  </defs>
  <path class="cls-4" d="m90,52.3c-2.1.1-4.3-2.3-6.3-5.7-3.8-.3-7-1.4-7.7-3.1-.6-1.7,1-4.5,3.6-7.3-.8-3.7-.9-6.9.7-8.2,1.6-1.3,4.9-.6,8.5,1.1,3.1-1.7,6.1-2.5,7.7-1.4s2.1,4.1,1.7,7.6c2.4,2.3,4,4.7,3.6,6.4s-3,3-6.2,3.8c-1.5,3.8-3.5,6.6-5.6,6.8Z"/>
  <path class="cls-3" d="m329,94.6c-2.2,1.2-6.1-.3-10.2-3.1-4.6,1.7-8.7,2.2-10.4.5-1.7-1.6-1.3-5.7.2-10.2-2.9-3.8-4.6-7.5-3.6-9.7,1.1-2.3,5.3-3.2,10.3-3.2,2.7-3.6,5.7-6,8-5.6,2.4.4,4.5,3.6,6,7.8,4.1,1.4,7.1,3.2,7.5,5.5.4,2.2-1.7,5-5,7.7.3,4.8-.6,9.1-2.8,10.3Z"/>
  <g>
    <path class="cls-2" d="m95.4,100.1l-15.2,2.3v-1.3c0-5.1-.1-10.1-.4-15l-6.7,1.6c-.5,5.1-.7,9.3-.7,12.5l-15.3-.5c5.3-12.9,10.3-27.5,14.9-43.7l7.7,1.4c1.5,9.2,3.5,17,6,23.6,1.1-.3,2.4-.6,4.1-1.1,1.1,5.2,3,11.9,5.6,20.2Zm-15.8-17.6c-.6-7-1.5-12.9-2.9-17.6-1.1,4.4-2.2,10.8-3.2,19.1l6.1-1.5Z"/>
    <path class="cls-2" d="m137.8,54.6c-1.4,16.6-2.1,29.7-2.1,39.2,0,1,0,1.7.1,2.1l-12,1.2c-.7-2.9-5-13.7-12.9-32.2v.8c0,3.7.2,9.7.6,17.9.4,8.3.7,13.9,1.1,16.6l-13,.3c.5-2.9,1.1-9.2,1.8-18.9.6-9.4.9-16,.9-20v-1.1c0-.4-.1-.6-.1-.7l10.8-1.4c.2,1.2,1.5,4,4.1,8.2,2.6,4.3,4.7,7.3,6.4,9.2.3-3.1.5-6.4.5-10.1,0-4.9-.4-8.9-1.1-11.9l14.9.8Z"/>
    <path class="cls-2" d="m174.3,76c0,1,0,2-.1,2.9-.5,5.6-2.4,10.3-5.7,14.2-3.2,3.8-6.9,5.7-11.1,5.7h-1.2c-4-.4-7.3-2.5-9.9-6.4-2.6-3.8-3.9-8.4-3.9-13.8,0-1,0-2,.1-2.9.5-5.6,2.4-10.4,5.7-14.2,3.2-3.8,6.9-5.7,11.1-5.7h.6c.3,0,.5.1.6.1,4,.4,7.3,2.5,9.9,6.4,2.6,3.8,3.9,8.4,3.9,13.7Zm-12.2,6.1c0-1.2-.1-2.9-.2-4.9-.3-4.7-.9-8.8-1.8-12.1-.9-3.3-1.9-5-2.9-5h-.1c-.8,0-1.5,1.3-2,3.6-.5,2.4-.8,5.4-.8,9,0,1.8,0,3.4.1,4.9.3,4.7.9,8.7,1.8,12,1,3.3,2,5,3,5,.8,0,1.5-1.2,2-3.6.6-2.3.9-5.3.9-8.9Z"/>
    <path class="cls-2" d="m213.9,54.4c-.3,6.1-.4,12.6-.4,19.5v3c0,6.7-1.7,12.5-5,17.3-3.3,4.8-7.4,7.2-12.3,7.2-8.3,0-12.8-8.1-13.3-24.2l-3.7.1c0-1.2.1-2.8.1-4.9,0-5-.1-9-.4-12l10.5.4c-.4,3.8-.6,7.4-.6,10.9,0,7,.7,13,2,18,1.2,4.5,2.5,6.7,3.8,6.8,1.3,0,2.4-1.5,3.2-4.5.8-2.9,1.2-6.5,1.2-10.8,0-.4,0-1.1-.1-1.9,0-.8-.1-1.4-.1-1.8v-.5c0-5.4-.4-12.5-1.3-21.5l16.4-1.1Z"/>
    <path class="cls-2" d="m261.2,93.6c0,5.6-1.1,10.1-3.4,13.7-2.2,3.3-4.9,5-8.2,5-1.1,0-2.4-.3-3.7-.9-2.8-1.2-5.5-3.9-8-8-2.7-4.4-4.8-9.8-6.4-16.2l-2.3,2c.2,2.3.8,8.6,1.9,18.9l-16.2.2c.9-10.8,1.3-22.6,1.3-35.3,0-6-.1-10.8-.4-14.5l9.1-.9c-.7,5.6-1.1,11.6-1.1,17.8,0,4,.2,7.3.5,9.9,5.8-4,8.7-10.2,8.7-18.7,0-4.9-1-9.3-2.9-13.1l17-2.3c.7,1.7,1.3,3.3,2,5,.9,2.7,1.4,5.2,1.4,7.6,0,4.7-1.9,8.7-5.6,12l-8.3,7.1c.9,4.4,2.1,8.2,3.6,11.2,1.3,2.8,2.4,4.2,3.4,4.2.7,0,1.1-1,1.1-3s-.4-4.6-1.1-7.9l15.2-8.2c1.6,5,2.4,9.7,2.4,14.4Z"/>
    <path class="cls-2" d="m294.8,84.2c0,3.3-1.9,6.8-5.7,10.4-3.8,3.6-7.2,5.4-10.1,5.4-.1,0-.2,0-.3-.1-8.5-.5-14-6.7-16.5-18.5l13.5,1.8c.4,8.9,1.4,13.4,3.2,13.4,1.1,0,2-1.3,2.8-3.9.6-1.8.9-3.7.9-5.9,0-4.3-1.4-6.7-4.2-7.2-3.7-.6-7.5-1.3-11.3-1.9-3.2-.9-4.9-2.9-4.9-5.9,0-3.9,1.4-7.9,4.3-11.9,3.1-4.3,6.6-6.5,10.5-6.5h.2c4.1.1,7.6,2,10.4,5.7,2.5,3.3,4,7.1,4.4,11.5l-12,2.5c0-.5.1-1.3.1-2.3,0-8.1-.9-12.2-2.7-12.2-1.1,0-2.1,1.8-3.1,5.3-.7,2.6-1.1,4.8-1.1,6.5,0,3.6,1.8,5.5,5.3,5.5,10.9.2,16.3,2.9,16.3,8.3Z"/>
  </g>
  <g>
    <path class="cls-1" d="m163.2,127c-.9,4.5-2.4,7.9-4.7,10.2-2,2-4.4,2.9-7.1,2.9s-5.1-.8-7.5-2.5-4.1-3.8-5.2-6.2c-1.4-3.4-2.1-6.8-2.1-10.2,0-2.4.3-4.6,1-6.8.9-2.9,2.5-5.3,4.9-7.2,2.4-1.9,4.9-2.9,7.6-2.9,2.9,0,5.5,1.1,7.6,3.4,2.5,2.6,4.3,6.5,5.3,11.7l-10.2.5c-.6-8.2-1.7-12.4-3.2-12.4-1.1,0-2.1,2-2.8,6.1-.5,2.7-.7,5.1-.7,7.2,0,3.2.5,6.8,1.4,10.8.8,3.3,1.6,4.9,2.6,4.9,1.3,0,2-2.5,2-7.4,0-.6,0-1.7-.1-3.2l11.2,1.1Z"/>
    <path class="cls-1" d="m186.8,141c-2.5-.4-5.4-.5-8.6-.5-1.1,0-2.6,0-4.5.1-2.4.1-3.9.1-4.5.1-.1-2.7-.5-8.6-1.2-17.6-.9-11.3-1.4-17.9-1.6-19.7l12.6-.3c-.5,4.5-1.3,14.2-2.2,29.3.5,0,1.3.1,2.4.1,2.3,0,4.7-.2,7.4-.6-.2,2.7-.3,4.6-.3,5.6.1,1.6.2,2.8.5,3.5Z"/>
    <path class="cls-1" d="m216.4,121.5c0,.8,0,1.6-.1,2.4-.4,4.6-2,8.4-4.6,11.5-2.6,3.1-5.6,4.7-9,4.7h-1c-3.2-.3-5.9-2-8.1-5.2s-3.2-6.8-3.2-11.2c0-.8,0-1.6.1-2.4.4-4.6,2-8.4,4.6-11.5s5.6-4.7,9-4.7h.5c.2,0,.4.1.5.1,3.2.3,5.9,2,8.1,5.2,2.2,3,3.2,6.7,3.2,11.1Zm-9.9,4.9c0-1-.1-2.3-.2-4-.2-3.9-.7-7.1-1.5-9.8-.7-2.7-1.5-4-2.4-4h-.1c-.7,0-1.2,1-1.6,2.9-.4,1.9-.6,4.4-.6,7.3,0,1.4,0,2.7.1,4,.2,3.8.7,7.1,1.5,9.8s1.6,4,2.4,4c.7,0,1.2-1,1.7-2.9.5-1.9.7-4.3.7-7.3Z"/>
    <path class="cls-1" d="m246.6,137.2c0,2.7-1.6,5.5-4.7,8.5-3.1,2.9-5.8,4.4-8.2,4.4-.1,0-.2,0-.2-.1-6.9-.4-11.4-5.4-13.4-15l11,1.5c.3,7.2,1.2,10.9,2.6,10.9.9,0,1.6-1.1,2.3-3.2.5-1.4.7-3,.7-4.8,0-3.5-1.1-5.4-3.4-5.9-3-.5-6.1-1-9.1-1.6-2.6-.7-4-2.3-4-4.8,0-3.2,1.2-6.4,3.5-9.6,2.5-3.5,5.4-5.3,8.5-5.3h.2c3.3.1,6.1,1.6,8.5,4.7,2.1,2.7,3.3,5.8,3.6,9.4l-9.8,1.9c0-.4.1-1.1.1-1.9,0-6.6-.7-9.9-2.2-9.9-.9,0-1.7,1.4-2.5,4.3-.6,2.1-.9,3.9-.9,5.3,0,3,1.4,4.5,4.3,4.5,8.7.1,13.1,2.3,13.1,6.7Z"/>
    <path class="cls-1" d="m273.3,103.2c-.2,2-.4,4.5-.4,7.5,0,1.8.1,3.5.2,5.1-2.6-.5-6.5-.8-11.9-.8-1.7,0-3,.1-3.9.2l.1,4.3,9.1.5-.2,2.9-9,.6c0,.2,0,.7-.1,1.5-.1.7-.1,1.4-.1,2v1c.4,0,.8.1,1.3.1,5,0,9.7-.3,14.3-.9-.1,1.7-.2,3.8-.2,6.3,0,1.6.1,3.7.2,6.3-4-.2-10.9-.6-20.7-1.3.4-5.3.6-11.3.6-18,0-2.2,0-3.9-.1-5-.4,0-1.2.1-2.2.2.2-2.2.3-4.2.3-5.8,0-2.1-.1-4.1-.3-5.9,2,.1,4.8.2,8.3.2,7.7-.2,12.5-.5,14.7-1Z"/>
    <path class="cls-1" d="m304.2,115.5c-3.7-.7-7.2-1-10.6-1h-.3c.5,4.4,1.6,13.3,3.4,26.6h-12.2c.7-5.1,1.2-9.3,1.6-12.6.8-6.7,1.3-12.4,1.6-17h-1.3c-2.2,0-5.3.3-9.3.9,0-.2,0-1.2.1-2.7.1-1.2.1-2.1.1-2.9,0-1.6-.1-2.9-.4-3.6,2.2.4,4.7.5,7.5.5,1.4,0,4-.1,8-.2,0,.5,0,1.4.1,2.7,1.6,0,3.7-.2,6.2-.6,1.8-.4,3.6-.7,5.3-1-.1,1.3-.2,2.7-.2,4.1.2,1.9.3,4.2.4,6.8Z"/>
  </g>
  <path class="cls-3" d="m240.2,27.3c-.2,10.1-22.1,13.5-29.9,15-20.5,3.3-41.1,3.4-61.7.8-8.7-1.4-24.4-3.7-29.7-11.4-2.5-3.6-1.2-8.5,2.4-10.9,2.7-1.9,5.5-2.5,8.4-3.2,3.8-1,7.8-1.6,11.6-2.2,7.6-1.2,15.3-1.8,22.9-2.2,12.9-.7,75.4-2.6,76,14.1h0Zm-6.9,0c0,.1.1.2,0,0-.7-1-1.8-1.5-3-2.3-6.4-3.2-13.8-4.6-20.9-5.8-19.7-3.1-40-3.4-59.8-.2-7.1,1.2-14.7,2.6-20.6,6.7-1,.8-2,1.5-2.3,2.4h0l.1-.1c0-.1.1-.3.1-.5.1-.4-.1-.8-.1-.8,0,0,.1,0,.1.1.1.1.2.1.3.2,15.5,9.9,91.5,11.1,106.1.3h0Z"/>
</svg>