<?xml version="1.0" encoding="UTF-8"?>
<svg id="Layer_2" data-name="Layer 2" xmlns="http://www.w3.org/2000/svg" viewBox="0 0 239.44 494.78">
  <defs>
    <style>
      .cls-1 {
        stroke-width: 0px;
      }
    </style>
  </defs>
  <path class="cls-1" d="m23.21,208.63c-6.85-20.1-16.17-29.86-21.08-57.43C-.02,139.08-.07,130.55.03,112.21.38,46.92.56,14.28,2.66,14.21c2.51-.08,6.31,39.14,7.45,52.61.63,7.4,1.78,22.62,4.45,43.61.89,7.02,2.26,17.65,2.85,17.6.89-.08-1.4-24.09-1.37-54.68.03-27.46,1.93-59.3,4.15-59.33,1.6-.02,2.44,16.51,7.42,60.81,5.47,48.67,6.28,50.05,6.66,50.03,3.36-.13.57-111.05,3.14-111.13,1.51-.05,4.38,38.37,5.82,66.34,1.33,25.78,1.55,44.79,2.11,44.79.63,0,.53-24.48,2.45-59.82,1.51-27.8,2.78-51.25,5.06-51.31,3.03-.07,6.39,41.21,7.69,66.73,1.77,34.73,2.57,52.53-1.69,73.93-5.48,27.52-11.84,27.65-18.01,54.03-6.19,26.48-4.5,46.6-.86,85.77,2.55,27.43,3.98,25.91,13.22,92.38,4.01,28.85,7.94,60.4-5.89,91.27-7.41,16.56-13.31,16.95-14.72,16.93-9.61-.15-16.3-23.02-18.4-30.18-8.65-29.52-5.78-54.46-2.21-81.7,8.11-61.87,9.98-60.49,12.51-89.07,3.81-43.08,5.72-64.62-1.29-85.2Z"/>
  <path class="cls-1" d="m130.04,138.95c-13.66-35.48-1.66-69.69,1.72-78.91C134.7,52.03,154.02-.65,184.08,0c29.43.64,46.47,51.9,48.89,59.18,2.33,7.01,14.27,42.92-1.72,78.91-11.9,26.79-26.11,23.97-37.74,49.75-8.4,18.63-7.43,34.4-2.57,82.34,4.6,45.44,8.15,75.03,10.29,94.35,11.49,103.59,5.81,122.09-5.15,127.8-6.37,3.32-14.7,2.4-20.58-.86-15.42-8.54-16.07-34.3-9.43-128.65,2.36-33.49,4.34-57.33,5.15-94.35,1.04-47.75-1.05-64.57-9.43-82.34-11.78-24.95-22.54-23.29-31.73-47.17Z"/>
</svg>