<?xml version="1.0" encoding="utf-8"?>
<!-- Generator: Adobe Illustrator 28.0.0, SVG Export Plug-In . SVG Version: 6.00 Build 0)  -->
<svg version="1.1" id="Layer_1" xmlns="http://www.w3.org/2000/svg" xmlns:xlink="http://www.w3.org/1999/xlink" x="0px" y="0px"
	 viewBox="0 0 367.9 165.8" style="enable-background:new 0 0 367.9 165.8;" xml:space="preserve">
<style type="text/css">
	.st0{fill:#FFE000;}
	.st1{fill:#FF9D00;}
	.st2{fill:#FF00AA;}
	.st3{fill:#5C6652;}
	.st4{fill:#FFAA00;}
	.st5{fill:#4F0341;}
	.st6{fill:#8C9D7D;}
</style>
<path class="st0" d="M-104.7,487.1h-309.7c-6.6,0-12-5.4-12-12v-7.7c0-6.6,5.4-12,12-12h309.7c6.6,0,12,5.4,12,12v7.7
	C-92.7,481.7-98.1,487.1-104.7,487.1z"/>
<path class="st0" d="M-102.3,436.2H-412c-6.6,0-12-5.4-12-12v-7.7c0-6.6,5.4-12,12-12h309.7c6.6,0,12,5.4,12,12v7.7
	C-90.3,430.8-95.7,436.2-102.3,436.2z"/>
<path class="st1" d="M145.8,688.8h-309.7c-6.6,0-12-5.4-12-12v-7.7c0-6.6,5.4-12,12-12h309.7c6.6,0,12,5.4,12,12v7.7
	C157.8,683.4,152.4,688.8,145.8,688.8z"/>
<g>
	<path class="st2" d="M-445.7,458.4c-10.5,3.1-16.4,3.7-21.1,1.7c-2.8-1.2-7.8-2.5-10.2-6.7c-6-10.6,9.2-28.2,11.3-30.5
		c5.8-6.8,12.1-10.9,18.6-14.6c18.1-10.2,56.2-26.4,68.1-14.3c2.8,2.9,3.1,6.4,3.4,8.8c0.9,9.3-5.8,17-11.1,22.8
		c-5.7,6.3-11.2,10-17.2,14C-421.6,451.2-436.1,455.6-445.7,458.4z M-408.8,394.5C-408.9,394.5-408.9,394.5-408.8,394.5
		c-11,2.5-23.4,7.7-35,14.8c-11.6,7.1-20.9,15-26.2,22.4c-4.7,6.6-5.6,11.9-2.5,14.7c3.1,2.8,10.4,3.1,20,0.9h0.1
		c10.9-2.5,23.3-7.7,34.9-14.8c11.6-7.1,20.9-15,26.2-22.4c4.7-6.6,5.6-11.9,2.5-14.7C-391.9,392.7-399.2,392.3-408.8,394.5z"/>
</g>
<text transform="matrix(1 0 0 1 -440.0387 465.0276)" style="fill:#2C0351; font-family:'0210fenotype'; font-size:47.7802px;">CLoset</text>
<text transform="matrix(1 0 0 1 -359.5315 417.3467)" class="st5" style="font-family:'0210fenotype'; font-size:36.1775px;">Anouks</text>
<text transform="matrix(1 0 0 1 -447.4731 458.742)" style="fill:#9500FF; font-family:'0210fenotype'; font-size:47.7802px;">CLoset</text>
<text transform="matrix(1 0 0 1 -364.3061 411.7913)" class="st2" style="font-family:'0210fenotype'; font-size:36.1775px;">Anouks</text>
<path class="st0" d="M-431.6,417.6c-2,1.1-5.5-0.3-9.2-2.8c-4.2,1.5-7.9,2-9.4,0.5s-1.2-5.1,0.2-9.2c-2.6-3.4-4.2-6.8-3.2-8.7
	c1-2,4.8-2.9,9.3-2.9c2.5-3.2,5.1-5.4,7.3-5.1c2.2,0.3,4.1,3.2,5.4,7.1c3.7,1.2,6.4,2.9,6.8,4.9s-1.6,4.5-4.5,6.9
	C-428.8,412.6-429.6,416.5-431.6,417.6z"/>
<path class="st0" d="M-67.8,463.3c-2,1.1-5.5-0.3-9.2-2.8c-4.2,1.5-7.9,2-9.4,0.5s-1.2-5.1,0.2-9.2c-2.6-3.4-4.2-6.8-3.2-8.7
	c1-2,4.8-2.9,9.3-2.9c2.5-3.2,5.1-5.4,7.3-5.1c2.2,0.3,4.1,3.2,5.4,7.1c3.7,1.2,6.4,2.9,6.8,4.9c0.4,2-1.6,4.5-4.5,6.9
	C-65,458.3-65.8,462.1-67.8,463.3z"/>
<g>
	<g>
		<path class="st0" d="M279.4,92.7H47.9c-6.6,0-12-5.4-12-12v-0.3c0-6.6,5.4-12,12-12h231.5c6.6,0,12,5.4,12,12v0.3
			C291.4,87.3,286,92.7,279.4,92.7z"/>
	</g>
	<g>
		<path class="st0" d="M329.6,131.4H78.2c-6.6,0-12-5.4-12-12v-2.2c0-6.6,5.4-12,12-12h251.4c6.6,0,12,5.4,12,12v2.2
			C341.6,126,336.2,131.4,329.6,131.4z"/>
	</g>
	<g>
		<path class="st3" d="M115.2,93c1.6,0,2.5,0.8,2.5,2.5v8.6c0,1.6-0.8,2.5-2.5,2.5H91.9c-0.8,0-1.2,0.4-1.2,1.2
			c0,0.8,0.4,1.2,1.2,1.2h27c1.6,0,2.5,0.8,2.5,2.4v6.1c0,1.6-0.8,2.5-2.5,2.5H87c-0.8,0-1.6-0.2-2.4-0.6c-1.6-0.8-2.5-2.3-2.5-4.3
			V97.9c0-0.8,0.2-1.6,0.6-2.4C83.5,93.8,85,93,87,93H115.2z"/>
		<path class="st3" d="M141.7,107.7c0,0.8,0.4,1.2,1.2,1.2h9.8c1.6,0,2.4,0.8,2.4,2.4v6.1c0,1.6-0.8,2.5-2.4,2.5h-24.5
			c-2,0-3.4-0.8-4.3-2.5c-0.4-0.8-0.6-1.6-0.6-2.4V95.4c0-1.6,0.8-2.5,2.5-2.5h13.5c1.6,0,2.4,0.8,2.4,2.5L141.7,107.7L141.7,107.7z
			"/>
		<path class="st3" d="M191.1,100.3c0.8,0,1.7,0.2,2.5,0.6c1.6,0.8,2.5,2.3,2.5,4.3v9.8c0,0.8-0.2,1.6-0.6,2.4
			c-0.8,1.6-2.3,2.5-4.3,2.5h-29.4c-2,0-3.4-0.8-4.3-2.5c-0.4-0.8-0.6-1.6-0.6-2.4v-9.8c0-2,0.8-3.5,2.5-4.3
			c0.8-0.4,1.6-0.6,2.4-0.6H191.1z M187.4,107.7c-0.1-0.8-0.5-1.2-1.2-1.2h-9.8c-0.8,0-1.2,0.4-1.2,1.2c0.1,0.8,0.5,1.2,1.2,1.2h9.8
			C186.9,108.9,187.3,108.5,187.4,107.7z"/>
		<path class="st3" d="M198,111.3c0-1.6,0.8-2.4,2.5-2.4h11c1.6,0,2.5-0.8,2.5-2.5v-1.2c0.2-3.3,1.9-4.9,4.9-4.9H241
			c1.6,0,2.4,0.8,2.4,2.5v1.2c0,1.6-0.8,2.5-2.4,2.5h-11.1c-1.6,0-2.4,0.8-2.4,2.5v6.1c0,0.8-0.2,1.6-0.6,2.4
			c-0.8,1.6-2.3,2.5-4.3,2.5h-22c-1.6,0-2.5-0.8-2.5-2.5L198,111.3L198,111.3z"/>
		<path class="st3" d="M262.7,117.5c0,1.6-0.8,2.5-2.5,2.5h-9.8c-0.8,0-1.6-0.2-2.4-0.6c-1.6-0.8-2.5-2.3-2.5-4.3v-9.8
			c0-0.8,0.2-1.7,0.6-2.5c0.8-1.6,2.3-2.5,4.3-2.5h31.9c1.6,0,2.5,0.8,2.5,2.5v7.3c0,2.4-1.2,3.7-3.7,3.7H264
			c-0.8,0-1.2,0.4-1.2,1.2L262.7,117.5L262.7,117.5z M272.6,108.9c0.8,0,1.2-0.4,1.2-1.2c0-0.8-0.4-1.2-1.2-1.2h-17.2
			c-0.8,0-1.2,0.4-1.2,1.2c0,0.8,0.4,1.2,1.2,1.2H272.6z"/>
		<path class="st3" d="M323.6,100.3c1.6,0,2.5,0.8,2.5,2.5v1.2c0,1.6-0.8,2.5-2.5,2.5h-27c-0.8,0-1.2,0.4-1.2,1.2
			c0,0.8,0.4,1.2,1.2,1.2h27c1.6,0,2.5,0.8,2.5,2.4v6.1c0,1.6-0.8,2.5-2.5,2.5h-31.9c-2,0-3.4-0.8-4.3-2.5c-0.4-0.8-0.6-1.6-0.6-2.4
			V95.4c0-1.6,0.8-2.5,2.5-2.5h2.4c1.6,0,2.5,0.8,2.5,2.5v3.7c0,0.8,0.4,1.2,1.2,1.2C295.4,100.3,323.6,100.3,323.6,100.3z"/>
	</g>
	<g>
		<g>
			<path class="st4" d="M41.5,91.2c-10.6,3.1-16.5,3.7-21.2,1.7c-2.8-1.2-7.8-2.5-10.2-6.7c-6-10.6,9.3-28.3,11.3-30.7
				c5.9-6.8,12.2-11,18.7-14.6c18.2-10.2,56.5-26.6,68.5-14.4c2.8,2.9,3.2,6.4,3.4,8.9c0.9,9.4-5.9,17.1-11.1,22.9
				c-5.7,6.3-11.2,10-17.3,14C65.7,84,51.1,88.4,41.5,91.2z M78.5,27L78.5,27c-11,2.5-23.5,7.8-35.1,14.9S22.4,57,17.1,64.4
				c-4.7,6.6-5.6,12-2.5,14.7c3.1,2.8,10.5,3.1,20.1,0.9h0.1c10.9-2.5,23.4-7.7,35-14.8c11.6-7.1,21-15.1,26.3-22.5
				c4.7-6.6,5.6-12,2.5-14.7C95.5,25.2,88.2,24.8,78.5,27z"/>
		</g>
	</g>
	<g>
		<path class="st5" d="M93.9,79.4c0,1.8-0.9,2.7-2.7,2.7H76.4c-1.8,0-2.7-0.9-2.7-2.7V68.6c0-0.9-0.4-1.3-1.3-1.3H61.5
			c-0.9,0-1.3,0.4-1.3,1.3v10.8c0,1.8-0.9,2.7-2.7,2.7h-4c-1.8,0-2.7-0.9-2.7-2.7V65.9c0-0.9,0.2-1.8,0.7-2.7
			c0.9-1.8,2.5-2.7,4.7-2.7h2.7c0.9,0,1.4-0.4,1.4-1.3v-4c0-1.8,0.9-2.7,2.7-2.7h25.6c2.2,0,3.8,0.9,4.7,2.7
			c0.5,0.9,0.7,1.8,0.7,2.7L93.9,79.4L93.9,79.4z M72.3,60.5c0.8,0,1.3-0.4,1.3-1.3c0-0.9-0.5-1.4-1.3-1.4h-8.1
			c-0.8,0-1.3,0.5-1.4,1.4c0.1,0.9,0.5,1.3,1.4,1.3H72.3z"/>
		<path class="st5" d="M133.7,60.5c0.9,0,1.8,0.2,2.7,0.7c1.8,0.9,2.7,2.5,2.7,4.7v13.4c0,1.8-0.9,2.7-2.7,2.7h-14.8
			c-1.8,0-2.7-0.9-2.7-2.7V70c0-1.8-0.9-2.7-2.7-2.7h-8.1c-1.8,0-2.7,0.9-2.7,2.7v9.4c0,1.8-0.9,2.7-2.7,2.7h-4
			c-1.8,0-2.7-0.9-2.7-2.7V65.9c0-2.2,0.9-3.8,2.7-4.7c0.9-0.4,1.8-0.7,2.7-0.7H133.7z"/>
		<path class="st5" d="M179,60.5c0.9,0,1.8,0.2,2.7,0.7c1.8,0.9,2.7,2.5,2.7,4.7v10.8c0,0.8-0.2,1.7-0.7,2.7
			c-0.9,1.8-2.5,2.7-4.7,2.7h-32.3c-2.2,0-3.8-0.9-4.7-2.7c-0.4-0.9-0.7-1.8-0.7-2.7V65.9c0-2.2,0.9-3.8,2.7-4.7
			c0.9-0.4,1.8-0.7,2.7-0.7H179z M175,68.6c-0.1-0.9-0.5-1.3-1.3-1.3h-10.8c-0.8,0-1.3,0.4-1.4,1.3c0.1,0.9,0.5,1.4,1.4,1.4h10.8
			C174.4,70,174.9,69.5,175,68.6z"/>
		<path class="st5" d="M191.9,82.1c-0.9,0-1.8-0.2-2.7-0.7c-1.8-0.9-2.7-2.5-2.7-4.7V63.2c0-1.8,0.9-2.7,2.7-2.7H204
			c1.8,0,2.7,0.9,2.7,2.7v4c0,1.8,0.9,2.7,2.7,2.7h8.1c1.8,0,2.7-0.9,2.7-2.7v-4c0-1.8,0.9-2.7,2.7-2.7h4c1.8,0,2.7,0.9,2.7,2.7
			v13.5c0,2.2-0.9,3.8-2.7,4.7c-0.9,0.4-1.8,0.7-2.7,0.7C224.2,82.1,191.9,82.1,191.9,82.1z"/>
		<path class="st5" d="M272.2,63.9c1.8,0.9,2.7,2.5,2.7,4.7v10.8c0,1.8-0.9,2.7-2.7,2.7h-4c-1.8,0-2.7-0.9-2.7-2.7v-8.1
			c0-0.9-0.4-1.3-1.3-1.3h-10.8c-0.9,0-1.4,0.4-1.4,1.3v8.1c0,1.8-0.9,2.7-2.7,2.7h-14.8c-1.8,0-2.7-0.9-2.7-2.7V55.1
			c0-1.8,0.9-2.7,2.7-2.7h2.7c1.8,0,2.7,0.9,2.7,2.7v5.4c0,1.8,0.9,2.7,2.7,2.7h9.4c0.9,0,1.4-0.4,1.4-1.3v-6.7
			c0-1.8,0.9-2.7,2.7-2.7h4c1.8,0,2.7,0.9,2.7,2.7v6.7c0,0.9,0.5,1.3,1.4,1.3h5.4C270.4,63.2,271.3,63.4,272.2,63.9z"/>
		<path class="st5" d="M277.1,72.6c0-1.8,0.9-2.7,2.7-2.7h12.1c1.8,0,2.7-0.9,2.7-2.7v-1.3c0.2-3.6,2-5.4,5.4-5.4h24.3
			c1.8,0,2.7,0.9,2.7,2.7v1.3c0,1.8-0.9,2.7-2.7,2.7h-12.1c-1.8,0-2.7,0.9-2.7,2.7v6.7c0,0.9-0.2,1.8-0.7,2.7
			c-0.9,1.8-2.5,2.7-4.7,2.7h-24.2c-1.8,0-2.7-0.9-2.7-2.7L277.1,72.6L277.1,72.6z"/>
	</g>
	<g>
		<path class="st6" d="M110,88.5c1.6,0,2.5,0.8,2.5,2.5v8.6c0,1.6-0.8,2.5-2.5,2.5H86.7c-0.8,0-1.2,0.4-1.2,1.2
			c0,0.8,0.4,1.2,1.2,1.2h27c1.6,0,2.5,0.8,2.5,2.4v6.1c0,1.6-0.8,2.5-2.5,2.5H81.8c-0.8,0-1.6-0.2-2.4-0.6
			c-1.6-0.8-2.5-2.3-2.5-4.3V93.4c0-0.8,0.2-1.6,0.6-2.4c0.8-1.6,2.3-2.5,4.3-2.5H110z"/>
		<path class="st6" d="M136.4,103.2c0,0.8,0.4,1.2,1.2,1.2h9.8c1.6,0,2.4,0.8,2.4,2.4v6.1c0,1.6-0.8,2.5-2.4,2.5h-24.5
			c-2,0-3.4-0.8-4.3-2.5c-0.4-0.8-0.6-1.6-0.6-2.4V91c0-1.6,0.8-2.5,2.5-2.5H134c1.6,0,2.4,0.8,2.4,2.5V103.2z"/>
		<path class="st6" d="M185.8,95.9c0.8,0,1.7,0.2,2.5,0.6c1.6,0.8,2.5,2.3,2.5,4.3v9.8c0,0.8-0.2,1.6-0.6,2.4
			c-0.8,1.6-2.3,2.5-4.3,2.5h-29.4c-2,0-3.4-0.8-4.3-2.5c-0.4-0.8-0.6-1.6-0.6-2.4v-9.8c0-2,0.8-3.5,2.5-4.3
			c0.8-0.4,1.6-0.6,2.4-0.6H185.8z M182.2,103.2c-0.1-0.8-0.5-1.2-1.2-1.2h-9.8c-0.8,0-1.2,0.4-1.2,1.2c0.1,0.8,0.5,1.2,1.2,1.2h9.8
			C181.7,104.5,182.1,104.1,182.2,103.2z"/>
		<path class="st6" d="M192.7,106.9c0-1.6,0.8-2.4,2.5-2.4h11c1.6,0,2.5-0.8,2.5-2.5v-1.2c0.2-3.3,1.9-4.9,4.9-4.9h22.1
			c1.6,0,2.4,0.8,2.4,2.5v1.2c0,1.6-0.8,2.5-2.4,2.5h-11.1c-1.6,0-2.4,0.8-2.4,2.5v6.1c0,0.8-0.2,1.6-0.6,2.4
			c-0.8,1.6-2.3,2.5-4.3,2.5h-22c-1.6,0-2.5-0.8-2.5-2.5L192.7,106.9L192.7,106.9z"/>
		<path class="st6" d="M257.5,113c0,1.6-0.8,2.5-2.5,2.5h-9.8c-0.8,0-1.6-0.2-2.4-0.6c-1.6-0.8-2.5-2.3-2.5-4.3v-9.8
			c0-0.8,0.2-1.7,0.6-2.5c0.8-1.6,2.3-2.5,4.3-2.5h31.9c1.6,0,2.5,0.8,2.5,2.5v7.3c0,2.4-1.2,3.7-3.7,3.7h-17.2
			c-0.8,0-1.2,0.4-1.2,1.2L257.5,113L257.5,113z M267.3,104.5c0.8,0,1.2-0.4,1.2-1.2c0-0.8-0.4-1.2-1.2-1.2h-17.2
			c-0.8,0-1.2,0.4-1.2,1.2c0,0.8,0.4,1.2,1.2,1.2H267.3z"/>
		<path class="st6" d="M318.3,95.9c1.6,0,2.5,0.8,2.5,2.5v1.2c0,1.6-0.8,2.5-2.5,2.5h-27c-0.8,0-1.2,0.4-1.2,1.2
			c0,0.8,0.4,1.2,1.2,1.2h27c1.6,0,2.5,0.8,2.5,2.4v6.1c0,1.6-0.8,2.5-2.5,2.5h-31.9c-2,0-3.4-0.8-4.3-2.5c-0.4-0.8-0.6-1.6-0.6-2.4
			V91c0-1.6,0.8-2.5,2.5-2.5h2.4c1.6,0,2.5,0.8,2.5,2.5v3.7c0,0.8,0.4,1.2,1.2,1.2C290.1,95.9,318.3,95.9,318.3,95.9z"/>
	</g>
	<g>
		<path class="st2" d="M89,73.7c0,1.8-0.9,2.7-2.7,2.7H71.5c-1.8,0-2.7-0.9-2.7-2.7V62.9c0-0.9-0.4-1.3-1.3-1.3H56.7
			c-0.9,0-1.3,0.4-1.3,1.3v10.8c0,1.8-0.9,2.7-2.7,2.7h-4c-1.8,0-2.7-0.9-2.7-2.7V60.2c0-0.9,0.2-1.8,0.7-2.7
			c0.9-1.8,2.5-2.7,4.7-2.7H54c0.9,0,1.4-0.4,1.4-1.3v-4c0-1.8,0.9-2.7,2.7-2.7h25.6c2.2,0,3.8,0.9,4.7,2.7c0.5,0.9,0.7,1.8,0.7,2.7
			L89,73.7L89,73.7z M67.4,54.8c0.8,0,1.3-0.4,1.3-1.3c0-0.9-0.5-1.4-1.3-1.4h-8.1c-0.8,0-1.3,0.5-1.4,1.4c0.1,0.9,0.5,1.3,1.4,1.3
			H67.4z"/>
		<path class="st2" d="M128.8,54.8c0.9,0,1.8,0.2,2.7,0.7c1.8,0.9,2.7,2.5,2.7,4.7v13.4c0,1.8-0.9,2.7-2.7,2.7h-14.8
			c-1.8,0-2.7-0.9-2.7-2.7v-9.4c0-1.8-0.9-2.7-2.7-2.7h-8.1c-1.8,0-2.7,0.9-2.7,2.7v9.4c0,1.8-0.9,2.7-2.7,2.7h-4
			c-1.8,0-2.7-0.9-2.7-2.7V60.2c0-2.2,0.9-3.8,2.7-4.7c0.9-0.4,1.8-0.7,2.7-0.7H128.8z"/>
		<path class="st2" d="M174.1,54.8c0.9,0,1.8,0.2,2.7,0.7c1.8,0.9,2.7,2.5,2.7,4.7V71c0,0.8-0.2,1.7-0.7,2.7
			c-0.9,1.8-2.5,2.7-4.7,2.7h-32.3c-2.2,0-3.8-0.9-4.7-2.7c-0.4-0.9-0.7-1.8-0.7-2.7V60.2c0-2.2,0.9-3.8,2.7-4.7
			c0.9-0.4,1.8-0.7,2.7-0.7H174.1z M170.1,62.9c-0.1-0.9-0.5-1.3-1.3-1.3H158c-0.8,0-1.3,0.4-1.4,1.3c0.1,0.9,0.5,1.4,1.4,1.4h10.8
			C169.5,64.3,170,63.8,170.1,62.9z"/>
		<path class="st2" d="M187,76.4c-0.9,0-1.8-0.2-2.7-0.7c-1.8-0.9-2.7-2.5-2.7-4.7V57.5c0-1.8,0.9-2.7,2.7-2.7h14.8
			c1.8,0,2.7,0.9,2.7,2.7v4c0,1.8,0.9,2.7,2.7,2.7h8.1c1.8,0,2.7-0.9,2.7-2.7v-4c0-1.8,0.9-2.7,2.7-2.7h4c1.8,0,2.7,0.9,2.7,2.7V71
			c0,2.2-0.9,3.8-2.7,4.7c-0.9,0.4-1.8,0.7-2.7,0.7C219.3,76.4,187,76.4,187,76.4z"/>
		<path class="st2" d="M267.3,58.2c1.8,0.9,2.7,2.5,2.7,4.7v10.8c0,1.8-0.9,2.7-2.7,2.7h-4c-1.8,0-2.7-0.9-2.7-2.7v-8.1
			c0-0.9-0.4-1.3-1.3-1.3h-10.8c-0.9,0-1.4,0.4-1.4,1.3v8.1c0,1.8-0.9,2.7-2.7,2.7h-14.8c-1.8,0-2.7-0.9-2.7-2.7V49.5
			c0-1.8,0.9-2.7,2.7-2.7h2.7c1.8,0,2.7,0.9,2.7,2.7v5.4c0,1.8,0.9,2.7,2.7,2.7h9.4c0.9,0,1.4-0.4,1.4-1.3v-6.7
			c0-1.8,0.9-2.7,2.7-2.7h4c1.8,0,2.7,0.9,2.7,2.7v6.7c0,0.9,0.5,1.3,1.4,1.3h5.4C265.5,57.5,266.4,57.8,267.3,58.2z"/>
		<path class="st2" d="M272.2,66.9c0-1.8,0.9-2.7,2.7-2.7H287c1.8,0,2.7-0.9,2.7-2.7v-1.3c0.2-3.6,2-5.4,5.4-5.4h24.3
			c1.8,0,2.7,0.9,2.7,2.7v1.3c0,1.8-0.9,2.7-2.7,2.7h-12.1c-1.8,0-2.7,0.9-2.7,2.7V71c0,0.9-0.2,1.8-0.7,2.7
			c-0.9,1.8-2.5,2.7-4.7,2.7H275c-1.8,0-2.7-0.9-2.7-2.7L272.2,66.9L272.2,66.9z"/>
	</g>
	<g>
		<path class="st0" d="M50,50.4c-1.8,1-4.9-0.3-8.1-2.5c-3.6,1.3-6.9,1.7-8.3,0.4c-1.3-1.3-1-4.5,0.2-8.1c-2.3-3-3.7-5.9-2.8-7.7
			c0.9-1.8,4.2-2.6,8.2-2.6c2.1-2.8,4.5-4.8,6.4-4.5c1.9,0.3,3.6,2.8,4.8,6.2c3.2,1.1,5.6,2.6,6,4.3c0.3,1.7-1.4,4-4,6.1
			C52.4,46,51.8,49.4,50,50.4z"/>
	</g>
	<g>
		<path class="st4" d="M348.4,98.8c-2.2,1.2-6.1-0.3-10.2-3.1c-4.6,1.7-8.7,2.2-10.4,0.5c-1.7-1.6-1.3-5.7,0.2-10.2
			c-2.9-3.8-4.6-7.5-3.6-9.7c1.1-2.3,5.3-3.2,10.3-3.2c2.7-3.6,5.7-6,8-5.6c2.4,0.4,4.5,3.6,6,7.8c4.1,1.4,7.1,3.2,7.5,5.5
			c0.4,2.2-1.7,5-5,7.7C351.5,93.3,350.6,97.6,348.4,98.8z"/>
	</g>
</g>
<image style="overflow:visible;" width="220" height="90" xlink:href="../../../../Screenshot 2023-11-27 at 13.52.20.png"  transform="matrix(0.5 0 0 0.5 415.3675 -57.6306)">
</image>
</svg>
