<?xml version="1.0" encoding="utf-8"?>
<!-- Generator: Adobe Illustrator 28.0.0, SVG Export Plug-In . SVG Version: 6.00 Build 0)  -->
<svg version="1.1" id="Layer_1" xmlns="http://www.w3.org/2000/svg" xmlns:xlink="http://www.w3.org/1999/xlink" x="0px" y="0px"
	 viewBox="0 0 367.9 165.8" style="enable-background:new 0 0 367.9 165.8;" xml:space="preserve">
<style type="text/css">
	.st0{fill:#FFE000;}
	.st1{fill:#FF9D00;}
	.st2{fill:#FF00AA;}
	.st3{fill:#5C6652;}
	.st4{fill:#4F0341;}
	.st5{fill:#8C9D7D;}
	.st6{fill:#FFAA00;}
	.st7{fill:#FF00AA;stroke:#F9F050;stroke-miterlimit:10;}
	.st8{fill:#8C9D7D;stroke:#F9F050;stroke-miterlimit:10;}
	.st9{fill:none;stroke:#FFAA00;stroke-width:3;stroke-miterlimit:10;}
</style>
<path class="st0" d="M-104.7,487.1h-309.7c-6.6,0-12-5.4-12-12v-7.7c0-6.6,5.4-12,12-12h309.7c6.6,0,12,5.4,12,12v7.7
	C-92.7,481.7-98.1,487.1-104.7,487.1z"/>
<path class="st0" d="M-102.3,436.2H-412c-6.6,0-12-5.4-12-12v-7.7c0-6.6,5.4-12,12-12h309.7c6.6,0,12,5.4,12,12v7.7
	C-90.3,430.8-95.7,436.2-102.3,436.2z"/>
<path class="st1" d="M145.8,688.8h-309.7c-6.6,0-12-5.4-12-12v-7.7c0-6.6,5.4-12,12-12h309.7c6.6,0,12,5.4,12,12v7.7
	C157.8,683.4,152.4,688.8,145.8,688.8z"/>
<g>
	<path class="st2" d="M-445.7,458.4c-10.5,3.1-16.4,3.7-21.1,1.7c-2.8-1.2-7.8-2.5-10.2-6.7c-6-10.6,9.2-28.2,11.3-30.5
		c5.8-6.8,12.1-10.9,18.6-14.6c18.1-10.2,56.2-26.4,68.1-14.3c2.8,2.9,3.1,6.4,3.4,8.8c0.9,9.3-5.8,17-11.1,22.8
		c-5.7,6.3-11.2,10-17.2,14C-421.6,451.2-436.1,455.6-445.7,458.4z M-408.8,394.5C-408.9,394.5-408.9,394.5-408.8,394.5
		c-11,2.5-23.4,7.7-35,14.8c-11.6,7.1-20.9,15-26.2,22.4c-4.7,6.6-5.6,11.9-2.5,14.7c3.1,2.8,10.4,3.1,20,0.9h0.1
		c10.9-2.5,23.3-7.7,34.9-14.8c11.6-7.1,20.9-15,26.2-22.4c4.7-6.6,5.6-11.9,2.5-14.7C-391.9,392.7-399.2,392.3-408.8,394.5z"/>
</g>
<text transform="matrix(1 0 0 1 -440.0387 465.0276)" style="fill:#2C0351; font-family:'0210fenotype'; font-size:47.7802px;">CLoset</text>
<text transform="matrix(1 0 0 1 -359.5315 417.3467)" class="st4" style="font-family:'0210fenotype'; font-size:36.1775px;">Anouks</text>
<text transform="matrix(1 0 0 1 -447.4731 458.742)" style="fill:#9500FF; font-family:'0210fenotype'; font-size:47.7802px;">CLoset</text>
<text transform="matrix(1 0 0 1 -364.3061 411.7913)" class="st2" style="font-family:'0210fenotype'; font-size:36.1775px;">Anouks</text>
<path class="st0" d="M-431.6,417.6c-2,1.1-5.5-0.3-9.2-2.8c-4.2,1.5-7.9,2-9.4,0.5s-1.2-5.1,0.2-9.2c-2.6-3.4-4.2-6.8-3.2-8.7
	c1-2,4.8-2.9,9.3-2.9c2.5-3.2,5.1-5.4,7.3-5.1c2.2,0.3,4.1,3.2,5.4,7.1c3.7,1.2,6.4,2.9,6.8,4.9s-1.6,4.5-4.5,6.9
	C-428.8,412.6-429.6,416.5-431.6,417.6z"/>
<path class="st0" d="M-67.8,463.3c-2,1.1-5.5-0.3-9.2-2.8c-4.2,1.5-7.9,2-9.4,0.5s-1.2-5.1,0.2-9.2c-2.6-3.4-4.2-6.8-3.2-8.7
	c1-2,4.8-2.9,9.3-2.9c2.5-3.2,5.1-5.4,7.3-5.1c2.2,0.3,4.1,3.2,5.4,7.1c3.7,1.2,6.4,2.9,6.8,4.9c0.4,2-1.6,4.5-4.5,6.9
	C-65,458.3-65.8,462.1-67.8,463.3z"/>
<g>
	<path class="st3" d="M115.2,232.1c1.6,0,2.5,0.8,2.5,2.5v8.6c0,1.6-0.8,2.5-2.5,2.5H91.9c-0.8,0-1.2,0.4-1.2,1.2s0.4,1.2,1.2,1.2
		h27c1.6,0,2.5,0.8,2.5,2.4v6.1c0,1.6-0.8,2.5-2.5,2.5H87c-0.8,0-1.6-0.2-2.4-0.6c-1.6-0.8-2.5-2.3-2.5-4.3V237
		c0-0.8,0.2-1.6,0.6-2.4c0.8-1.7,2.3-2.5,4.3-2.5H115.2z"/>
	<path class="st3" d="M141.7,246.8c0,0.8,0.4,1.2,1.2,1.2h9.8c1.6,0,2.4,0.8,2.4,2.4v6.1c0,1.6-0.8,2.5-2.4,2.5h-24.5
		c-2,0-3.4-0.8-4.3-2.5c-0.4-0.8-0.6-1.6-0.6-2.4v-19.6c0-1.6,0.8-2.5,2.5-2.5h13.5c1.6,0,2.4,0.8,2.4,2.5L141.7,246.8L141.7,246.8z
		"/>
	<path class="st3" d="M191.1,239.4c0.8,0,1.7,0.2,2.5,0.6c1.6,0.8,2.5,2.3,2.5,4.3v9.8c0,0.8-0.2,1.6-0.6,2.4
		c-0.8,1.6-2.3,2.5-4.3,2.5h-29.4c-2,0-3.4-0.8-4.3-2.5c-0.4-0.8-0.6-1.6-0.6-2.4v-9.8c0-2,0.8-3.5,2.5-4.3c0.8-0.4,1.6-0.6,2.4-0.6
		H191.1z M187.4,246.8c-0.1-0.8-0.5-1.2-1.2-1.2h-9.8c-0.8,0-1.2,0.4-1.2,1.2c0.1,0.8,0.5,1.2,1.2,1.2h9.8
		C186.9,248,187.3,247.6,187.4,246.8z"/>
	<path class="st3" d="M198,250.4c0-1.6,0.8-2.4,2.5-2.4h11c1.6,0,2.5-0.8,2.5-2.5v-1.2c0.2-3.3,1.9-4.9,4.9-4.9H241
		c1.6,0,2.4,0.8,2.4,2.5v1.2c0,1.6-0.8,2.5-2.4,2.5h-11.1c-1.6,0-2.4,0.8-2.4,2.5v6.1c0,0.8-0.2,1.6-0.6,2.4
		c-0.8,1.6-2.3,2.5-4.3,2.5h-22c-1.6,0-2.5-0.8-2.5-2.5L198,250.4L198,250.4z"/>
	<path class="st3" d="M262.7,256.6c0,1.6-0.8,2.5-2.5,2.5h-9.8c-0.8,0-1.6-0.2-2.4-0.6c-1.6-0.8-2.5-2.3-2.5-4.3v-9.8
		c0-0.8,0.2-1.7,0.6-2.5c0.8-1.6,2.3-2.5,4.3-2.5h31.9c1.6,0,2.5,0.8,2.5,2.5v7.3c0,2.4-1.2,3.7-3.7,3.7H264c-0.8,0-1.2,0.4-1.2,1.2
		L262.7,256.6L262.7,256.6z M272.6,248c0.8,0,1.2-0.4,1.2-1.2c0-0.8-0.4-1.2-1.2-1.2h-17.2c-0.8,0-1.2,0.4-1.2,1.2s0.4,1.2,1.2,1.2
		H272.6z"/>
	<path class="st3" d="M323.6,239.4c1.6,0,2.5,0.8,2.5,2.5v1.2c0,1.6-0.8,2.5-2.5,2.5h-27c-0.8,0-1.2,0.4-1.2,1.2
		c0,0.8,0.4,1.2,1.2,1.2h27c1.6,0,2.5,0.8,2.5,2.4v6.1c0,1.6-0.8,2.5-2.5,2.5h-31.9c-2,0-3.4-0.8-4.3-2.5c-0.4-0.8-0.6-1.6-0.6-2.4
		v-19.6c0-1.6,0.8-2.5,2.5-2.5h2.4c1.6,0,2.5,0.8,2.5,2.5v3.7c0,0.8,0.4,1.2,1.2,1.2C295.4,239.4,323.6,239.4,323.6,239.4z"/>
</g>
<g>
	<path class="st4" d="M93.9-66.7c0,1.8-0.9,2.7-2.7,2.7H76.4c-1.8,0-2.7-0.9-2.7-2.7v-10.8c0-0.9-0.4-1.3-1.3-1.3H61.5
		c-0.9,0-1.3,0.4-1.3,1.3v10.8c0,1.8-0.9,2.7-2.7,2.7h-4c-1.8,0-2.7-0.9-2.7-2.7v-13.5c0-0.9,0.2-1.8,0.7-2.7
		c0.9-1.8,2.5-2.7,4.7-2.7h2.7c0.9,0,1.4-0.4,1.4-1.3v-4c0-1.8,0.9-2.7,2.7-2.7h25.6c2.2,0,3.8,0.9,4.7,2.7c0.5,0.9,0.7,1.8,0.7,2.7
		L93.9-66.7L93.9-66.7z M72.3-85.6c0.8,0,1.3-0.4,1.3-1.3c0-0.9-0.5-1.4-1.3-1.4h-8.1c-0.8,0-1.3,0.5-1.4,1.4
		c0.1,0.9,0.5,1.3,1.4,1.3H72.3z"/>
	<path class="st4" d="M133.7-85.6c0.9,0,1.8,0.2,2.7,0.7c1.8,0.9,2.7,2.5,2.7,4.7v13.4c0,1.8-0.9,2.7-2.7,2.7h-14.8
		c-1.8,0-2.7-0.9-2.7-2.7v-9.3c0-1.8-0.9-2.7-2.7-2.7h-8.1c-1.8,0-2.7,0.9-2.7,2.7v9.4c0,1.8-0.9,2.7-2.7,2.7h-4
		c-1.8,0-2.7-0.9-2.7-2.7v-13.5c0-2.2,0.9-3.8,2.7-4.7c0.9-0.4,1.8-0.7,2.7-0.7H133.7z"/>
	<path class="st4" d="M179-85.6c0.9,0,1.8,0.2,2.7,0.7c1.8,0.9,2.7,2.5,2.7,4.7v10.8c0,0.8-0.2,1.7-0.7,2.7
		c-0.9,1.8-2.5,2.7-4.7,2.7h-32.3c-2.2,0-3.8-0.9-4.7-2.7c-0.4-0.9-0.7-1.8-0.7-2.7v-10.8c0-2.2,0.9-3.8,2.7-4.7
		c0.9-0.4,1.8-0.7,2.7-0.7H179z M175-77.5c-0.1-0.9-0.5-1.3-1.3-1.3h-10.8c-0.8,0-1.3,0.4-1.4,1.3c0.1,0.9,0.5,1.4,1.4,1.4h10.8
		C174.4-76.1,174.9-76.6,175-77.5z"/>
	<path class="st4" d="M191.9-64c-0.9,0-1.8-0.2-2.7-0.7c-1.8-0.9-2.7-2.5-2.7-4.7v-13.5c0-1.8,0.9-2.7,2.7-2.7H204
		c1.8,0,2.7,0.9,2.7,2.7v4c0,1.8,0.9,2.7,2.7,2.7h8.1c1.8,0,2.7-0.9,2.7-2.7v-4c0-1.8,0.9-2.7,2.7-2.7h4c1.8,0,2.7,0.9,2.7,2.7v13.5
		c0,2.2-0.9,3.8-2.7,4.7c-0.9,0.4-1.8,0.7-2.7,0.7C224.2-64,191.9-64,191.9-64z"/>
	<path class="st4" d="M272.2-82.2c1.8,0.9,2.7,2.5,2.7,4.7v10.8c0,1.8-0.9,2.7-2.7,2.7h-4c-1.8,0-2.7-0.9-2.7-2.7v-8.1
		c0-0.9-0.4-1.3-1.3-1.3h-10.8c-0.9,0-1.4,0.4-1.4,1.3v8.1c0,1.8-0.9,2.7-2.7,2.7h-14.8c-1.8,0-2.7-0.9-2.7-2.7V-91
		c0-1.8,0.9-2.7,2.7-2.7h2.7c1.8,0,2.7,0.9,2.7,2.7v5.4c0,1.8,0.9,2.7,2.7,2.7h9.4c0.9,0,1.4-0.4,1.4-1.3v-6.7
		c0-1.8,0.9-2.7,2.7-2.7h4c1.8,0,2.7,0.9,2.7,2.7v6.7c0,0.9,0.5,1.3,1.4,1.3h5.4C270.4-82.9,271.3-82.7,272.2-82.2z"/>
	<path class="st4" d="M277.1-73.5c0-1.8,0.9-2.7,2.7-2.7h12.1c1.8,0,2.7-0.9,2.7-2.7v-1.3c0.2-3.6,2-5.4,5.4-5.4h24.3
		c1.8,0,2.7,0.9,2.7,2.7v1.3c0,1.8-0.9,2.7-2.7,2.7h-12.1c-1.8,0-2.7,0.9-2.7,2.7v6.7c0,0.9-0.2,1.8-0.7,2.7
		c-0.9,1.8-2.5,2.7-4.7,2.7h-24.2c-1.8,0-2.7-0.9-2.7-2.7L277.1-73.5L277.1-73.5z"/>
</g>
<g>
	<path class="st5" d="M110,218.4c1.6,0,2.5,0.8,2.5,2.5v8.6c0,1.6-0.8,2.5-2.5,2.5H86.7c-0.8,0-1.2,0.4-1.2,1.2s0.4,1.2,1.2,1.2h27
		c1.6,0,2.5,0.8,2.5,2.4v6.1c0,1.6-0.8,2.5-2.5,2.5H81.8c-0.8,0-1.6-0.2-2.4-0.6c-1.6-0.8-2.5-2.3-2.5-4.3v-17.2
		c0-0.8,0.2-1.6,0.6-2.4c0.8-1.6,2.3-2.5,4.3-2.5H110z"/>
	<path class="st5" d="M136.4,233.1c0,0.8,0.4,1.2,1.2,1.2h9.8c1.6,0,2.4,0.8,2.4,2.4v6.1c0,1.6-0.8,2.5-2.4,2.5h-24.5
		c-2,0-3.4-0.8-4.3-2.5c-0.4-0.8-0.6-1.6-0.6-2.4v-19.5c0-1.6,0.8-2.5,2.5-2.5H134c1.6,0,2.4,0.8,2.4,2.5V233.1z"/>
	<path class="st5" d="M185.8,225.8c0.8,0,1.7,0.2,2.5,0.6c1.6,0.8,2.5,2.3,2.5,4.3v9.8c0,0.8-0.2,1.6-0.6,2.4
		c-0.8,1.6-2.3,2.5-4.3,2.5h-29.4c-2,0-3.4-0.8-4.3-2.5c-0.4-0.8-0.6-1.6-0.6-2.4v-9.8c0-2,0.8-3.5,2.5-4.3c0.8-0.4,1.6-0.6,2.4-0.6
		H185.8z M182.2,233.1c-0.1-0.8-0.5-1.2-1.2-1.2h-9.8c-0.8,0-1.2,0.4-1.2,1.2c0.1,0.8,0.5,1.2,1.2,1.2h9.8
		C181.7,234.4,182.1,234,182.2,233.1z"/>
	<path class="st5" d="M192.7,236.8c0-1.6,0.8-2.4,2.5-2.4h11c1.6,0,2.5-0.8,2.5-2.5v-1.2c0.2-3.3,1.9-4.9,4.9-4.9h22.1
		c1.6,0,2.4,0.8,2.4,2.5v1.2c0,1.6-0.8,2.5-2.4,2.5h-11.1c-1.6,0-2.4,0.8-2.4,2.5v6.1c0,0.8-0.2,1.6-0.6,2.4
		c-0.8,1.6-2.3,2.5-4.3,2.5h-22c-1.6,0-2.5-0.8-2.5-2.5L192.7,236.8L192.7,236.8z"/>
	<path class="st5" d="M257.5,242.9c0,1.6-0.8,2.5-2.5,2.5h-9.8c-0.8,0-1.6-0.2-2.4-0.6c-1.6-0.8-2.5-2.3-2.5-4.3v-9.8
		c0-0.8,0.2-1.7,0.6-2.5c0.8-1.6,2.3-2.5,4.3-2.5h31.9c1.6,0,2.5,0.8,2.5,2.5v7.3c0,2.4-1.2,3.7-3.7,3.7h-17.2
		c-0.8,0-1.2,0.4-1.2,1.2L257.5,242.9L257.5,242.9z M267.3,234.4c0.8,0,1.2-0.4,1.2-1.2s-0.4-1.2-1.2-1.2h-17.2
		c-0.8,0-1.2,0.4-1.2,1.2c0,0.8,0.4,1.2,1.2,1.2H267.3z"/>
	<path class="st5" d="M318.3,225.8c1.6,0,2.5,0.8,2.5,2.5v1.2c0,1.6-0.8,2.5-2.5,2.5h-27c-0.8,0-1.2,0.4-1.2,1.2s0.4,1.2,1.2,1.2h27
		c1.6,0,2.5,0.8,2.5,2.4v6.1c0,1.6-0.8,2.5-2.5,2.5h-31.9c-2,0-3.4-0.8-4.3-2.5c-0.4-0.8-0.6-1.6-0.6-2.4v-19.6
		c0-1.6,0.8-2.5,2.5-2.5h2.4c1.6,0,2.5,0.8,2.5,2.5v3.7c0,0.8,0.4,1.2,1.2,1.2C290.1,225.8,318.3,225.8,318.3,225.8z"/>
</g>
<g>
	<path class="st2" d="M89-72.4c0,1.8-0.9,2.7-2.7,2.7H71.5c-1.8,0-2.7-0.9-2.7-2.7v-10.8c0-0.9-0.4-1.3-1.3-1.3H56.7
		c-0.9,0-1.3,0.4-1.3,1.3v10.8c0,1.8-0.9,2.7-2.7,2.7h-4c-1.8,0-2.7-0.9-2.7-2.7v-13.5c0-0.9,0.2-1.8,0.7-2.7
		c0.9-1.8,2.5-2.7,4.7-2.7H54c0.9,0,1.4-0.4,1.4-1.3v-4c0-1.8,0.9-2.7,2.7-2.7h25.6c2.2,0,3.8,0.9,4.7,2.7c0.5,0.9,0.7,1.8,0.7,2.7
		L89-72.4L89-72.4z M67.4-91.3c0.8,0,1.3-0.4,1.3-1.3S68.2-94,67.4-94h-8.1c-0.8,0-1.3,0.5-1.4,1.4c0.1,0.9,0.5,1.3,1.4,1.3H67.4z"
		/>
	<path class="st2" d="M128.8-91.3c0.9,0,1.8,0.2,2.7,0.7c1.8,0.9,2.7,2.5,2.7,4.7v13.4c0,1.8-0.9,2.7-2.7,2.7h-14.8
		c-1.8,0-2.7-0.9-2.7-2.7v-9.4c0-1.8-0.9-2.7-2.7-2.7h-8.1c-1.8,0-2.7,0.9-2.7,2.7v9.4c0,1.8-0.9,2.7-2.7,2.7h-4
		c-1.8,0-2.7-0.9-2.7-2.7v-13.4c0-2.2,0.9-3.8,2.7-4.7c0.9-0.4,1.8-0.7,2.7-0.7H128.8z"/>
	<path class="st2" d="M174.1-91.3c0.9,0,1.8,0.2,2.7,0.7c1.8,0.9,2.7,2.5,2.7,4.7v10.8c0,0.8-0.2,1.7-0.7,2.7
		c-0.9,1.8-2.5,2.7-4.7,2.7h-32.3c-2.2,0-3.8-0.9-4.7-2.7c-0.4-0.9-0.7-1.8-0.7-2.7v-10.8c0-2.2,0.9-3.8,2.7-4.7
		c0.9-0.4,1.8-0.7,2.7-0.7H174.1z M170.1-83.2c-0.1-0.9-0.5-1.3-1.3-1.3H158c-0.8,0-1.3,0.4-1.4,1.3c0.1,0.9,0.5,1.4,1.4,1.4h10.8
		C169.5-81.8,170-82.3,170.1-83.2z"/>
	<path class="st2" d="M187-69.7c-0.9,0-1.8-0.2-2.7-0.7c-1.8-0.9-2.7-2.5-2.7-4.7v-13.5c0-1.8,0.9-2.7,2.7-2.7h14.8
		c1.8,0,2.7,0.9,2.7,2.7v4c0,1.8,0.9,2.7,2.7,2.7h8.1c1.8,0,2.7-0.9,2.7-2.7v-4c0-1.8,0.9-2.7,2.7-2.7h4c1.8,0,2.7,0.9,2.7,2.7v13.5
		c0,2.2-0.9,3.8-2.7,4.7c-0.9,0.4-1.8,0.7-2.7,0.7C219.3-69.7,187-69.7,187-69.7z"/>
	<path class="st2" d="M267.3-87.9c1.8,0.9,2.7,2.5,2.7,4.7v10.8c0,1.8-0.9,2.7-2.7,2.7h-4c-1.8,0-2.7-0.9-2.7-2.7v-8.1
		c0-0.9-0.4-1.3-1.3-1.3h-10.8c-0.9,0-1.4,0.4-1.4,1.3v8.1c0,1.8-0.9,2.7-2.7,2.7h-14.8c-1.8,0-2.7-0.9-2.7-2.7v-24.2
		c0-1.8,0.9-2.7,2.7-2.7h2.7c1.8,0,2.7,0.9,2.7,2.7v5.4c0,1.8,0.9,2.7,2.7,2.7h9.4c0.9,0,1.4-0.4,1.4-1.3v-6.7
		c0-1.8,0.9-2.7,2.7-2.7h4c1.8,0,2.7,0.9,2.7,2.7v6.7c0,0.9,0.5,1.3,1.4,1.3h5.4C265.5-88.6,266.4-88.3,267.3-87.9z"/>
	<path class="st2" d="M272.2-79.2c0-1.8,0.9-2.7,2.7-2.7H287c1.8,0,2.7-0.9,2.7-2.7v-1.3c0.2-3.6,2-5.4,5.4-5.4h24.3
		c1.8,0,2.7,0.9,2.7,2.7v1.3c0,1.8-0.9,2.7-2.7,2.7h-12.1c-1.8,0-2.7,0.9-2.7,2.7v6.8c0,0.9-0.2,1.8-0.7,2.7
		c-0.9,1.8-2.5,2.7-4.7,2.7H275c-1.8,0-2.7-0.9-2.7-2.7L272.2-79.2L272.2-79.2z"/>
</g>
<text transform="matrix(1 0 0 1 471.9219 -72.7729)" style="font-family:'Funkhouse'; font-size:40px;">bratz</text>
<text transform="matrix(1 0 0 1 424.8906 -45.52)" style="font-family:'Funkhouse'; font-size:40px;">Lorem ipsum</text>
<text transform="matrix(1 0 0 1 382.474 221.6945)" class="st2" style="font-family:'Funkhouse'; font-size:65.8534px;">Anouks</text>
<text transform="matrix(1 0 0 1 482.8553 271.84)" class="st5" style="font-family:'Funkhouse'; font-size:53.4941px;">Closet</text>
<g>
	<path class="st0" d="M90,52.3c-2.1,0.1-4.3-2.3-6.3-5.7c-3.8-0.3-7-1.4-7.7-3.1c-0.6-1.7,1-4.5,3.6-7.3c-0.8-3.7-0.9-6.9,0.7-8.2
		c1.6-1.3,4.9-0.6,8.5,1.1c3.1-1.7,6.1-2.5,7.7-1.4c1.6,1.1,2.1,4.1,1.7,7.6c2.4,2.3,4,4.7,3.6,6.4c-0.4,1.7-3,3-6.2,3.8
		C94.1,49.3,92.1,52.1,90,52.3z"/>
</g>
<g>
	<path class="st6" d="M329,94.6c-2.2,1.2-6.1-0.3-10.2-3.1c-4.6,1.7-8.7,2.2-10.4,0.5c-1.7-1.6-1.3-5.7,0.2-10.2
		c-2.9-3.8-4.6-7.5-3.6-9.7c1.1-2.3,5.3-3.2,10.3-3.2c2.7-3.6,5.7-6,8-5.6c2.4,0.4,4.5,3.6,6,7.8c4.1,1.4,7.1,3.2,7.5,5.5
		c0.4,2.2-1.7,5-5,7.7C332.1,89.1,331.2,93.4,329,94.6z"/>
</g>
<path class="st7" d="M95.4,100.1l-15.2,2.3v-1.3c0-5.1-0.1-10.1-0.4-15l-6.7,1.6c-0.5,5.1-0.7,9.3-0.7,12.5l-15.3-0.5
	C62.4,86.8,67.4,72.2,72,56l7.7,1.4c1.5,9.2,3.5,17,6,23.6c1.1-0.3,2.4-0.6,4.1-1.1C90.9,85.1,92.8,91.8,95.4,100.1z M79.6,82.5
	c-0.6-7-1.5-12.9-2.9-17.6c-1.1,4.4-2.2,10.8-3.2,19.1L79.6,82.5z"/>
<path class="st7" d="M137.8,54.6c-1.4,16.6-2.1,29.7-2.1,39.2c0,1,0,1.7,0.1,2.1l-12,1.2c-0.7-2.9-5-13.7-12.9-32.2v0.8
	c0,3.7,0.2,9.7,0.6,17.9c0.4,8.3,0.7,13.9,1.1,16.6l-13,0.3c0.5-2.9,1.1-9.2,1.8-18.9c0.6-9.4,0.9-16,0.9-20c0-0.3,0-0.7,0-1.1
	c0-0.4-0.1-0.6-0.1-0.7l10.8-1.4c0.2,1.2,1.5,4,4.1,8.2c2.6,4.3,4.7,7.3,6.4,9.2c0.3-3.1,0.5-6.4,0.5-10.1c0-4.9-0.4-8.9-1.1-11.9
	L137.8,54.6z"/>
<path class="st7" d="M174.3,76c0,1,0,2-0.1,2.9c-0.5,5.6-2.4,10.3-5.7,14.2c-3.2,3.8-6.9,5.7-11.1,5.7c-0.1,0-0.3,0-0.6,0
	c-0.3,0-0.5,0-0.6,0c-4-0.4-7.3-2.5-9.9-6.4c-2.6-3.8-3.9-8.4-3.9-13.8c0-1,0-2,0.1-2.9c0.5-5.6,2.4-10.4,5.7-14.2
	c3.2-3.8,6.9-5.7,11.1-5.7c0.1,0,0.3,0,0.6,0c0.3,0,0.5,0.1,0.6,0.1c4,0.4,7.3,2.5,9.9,6.4C173,66.1,174.3,70.7,174.3,76z
	 M162.1,82.1c0-1.2-0.1-2.9-0.2-4.9c-0.3-4.7-0.9-8.8-1.8-12.1c-0.9-3.3-1.9-5-2.9-5h-0.1c-0.8,0-1.5,1.3-2,3.6
	c-0.5,2.4-0.8,5.4-0.8,9c0,1.8,0,3.4,0.1,4.9c0.3,4.7,0.9,8.7,1.8,12c1,3.3,2,5,3,5c0.8,0,1.5-1.2,2-3.6
	C161.8,88.7,162.1,85.7,162.1,82.1z"/>
<path class="st7" d="M213.9,54.4c-0.3,6.1-0.4,12.6-0.4,19.5v3c0,6.7-1.7,12.5-5,17.3c-3.3,4.8-7.4,7.2-12.3,7.2
	c-8.3,0-12.8-8.1-13.3-24.2l-3.7,0.1c0-1.2,0.1-2.8,0.1-4.9c0-5-0.1-9-0.4-12l10.5,0.4c-0.4,3.8-0.6,7.4-0.6,10.9c0,7,0.7,13,2,18
	c1.2,4.5,2.5,6.7,3.8,6.8c1.3,0,2.4-1.5,3.2-4.5c0.8-2.9,1.2-6.5,1.2-10.8c0-0.4,0-1.1-0.1-1.9c0-0.8-0.1-1.4-0.1-1.8v-0.5
	c0-5.4-0.4-12.5-1.3-21.5L213.9,54.4z"/>
<path class="st7" d="M261.2,93.6c0,5.6-1.1,10.1-3.4,13.7c-2.2,3.3-4.9,5-8.2,5c-1.1,0-2.4-0.3-3.7-0.9c-2.8-1.2-5.5-3.9-8-8
	c-2.7-4.4-4.8-9.8-6.4-16.2l-2.3,2c0.2,2.3,0.8,8.6,1.9,18.9l-16.2,0.2c0.9-10.8,1.3-22.6,1.3-35.3c0-6-0.1-10.8-0.4-14.5l9.1-0.9
	c-0.7,5.6-1.1,11.6-1.1,17.8c0,4,0.2,7.3,0.5,9.9c5.8-4,8.7-10.2,8.7-18.7c0-4.9-1-9.3-2.9-13.1l17-2.3c0.7,1.7,1.3,3.3,2,5
	c0.9,2.7,1.4,5.2,1.4,7.6c0,4.7-1.9,8.7-5.6,12l-8.3,7.1c0.9,4.4,2.1,8.2,3.6,11.2c1.3,2.8,2.4,4.2,3.4,4.2c0.7,0,1.1-1,1.1-3
	c0-2-0.4-4.6-1.1-7.9l15.2-8.2C260.4,84.2,261.2,88.9,261.2,93.6z"/>
<path class="st7" d="M294.8,84.2c0,3.3-1.9,6.8-5.7,10.4c-3.8,3.6-7.2,5.4-10.1,5.4c-0.1,0-0.2,0-0.3-0.1c-8.5-0.5-14-6.7-16.5-18.5
	l13.5,1.8c0.4,8.9,1.4,13.4,3.2,13.4c1.1,0,2-1.3,2.8-3.9c0.6-1.8,0.9-3.7,0.9-5.9c0-4.3-1.4-6.7-4.2-7.2c-3.7-0.6-7.5-1.3-11.3-1.9
	c-3.2-0.9-4.9-2.9-4.9-5.9c0-3.9,1.4-7.9,4.3-11.9c3.1-4.3,6.6-6.5,10.5-6.5c0.2,0,0.2,0,0.2,0c4.1,0.1,7.6,2,10.4,5.7
	c2.5,3.3,4,7.1,4.4,11.5L280,73.1c0-0.5,0.1-1.3,0.1-2.3c0-8.1-0.9-12.2-2.7-12.2c-1.1,0-2.1,1.8-3.1,5.3c-0.7,2.6-1.1,4.8-1.1,6.5
	c0,3.6,1.8,5.5,5.3,5.5C289.4,76.1,294.8,78.8,294.8,84.2z"/>
<path class="st8" d="M163.2,127c-0.9,4.5-2.4,7.9-4.7,10.2c-2,2-4.4,2.9-7.1,2.9c-2.6,0-5.1-0.8-7.5-2.5c-2.4-1.7-4.1-3.8-5.2-6.2
	c-1.4-3.4-2.1-6.8-2.1-10.2c0-2.4,0.3-4.6,1-6.8c0.9-2.9,2.5-5.3,4.9-7.2c2.4-1.9,4.9-2.9,7.6-2.9c2.9,0,5.5,1.1,7.6,3.4
	c2.5,2.6,4.3,6.5,5.3,11.7l-10.2,0.5c-0.6-8.2-1.7-12.4-3.2-12.4c-1.1,0-2.1,2-2.8,6.1c-0.5,2.7-0.7,5.1-0.7,7.2
	c0,3.2,0.5,6.8,1.4,10.8c0.8,3.3,1.6,4.9,2.6,4.9c1.3,0,2-2.5,2-7.4c0-0.6,0-1.7-0.1-3.2L163.2,127z"/>
<path class="st8" d="M186.8,141c-2.5-0.4-5.4-0.5-8.6-0.5c-1.1,0-2.6,0-4.5,0.1c-2.4,0.1-3.9,0.1-4.5,0.1c-0.1-2.7-0.5-8.6-1.2-17.6
	c-0.9-11.3-1.4-17.9-1.6-19.7l12.6-0.3c-0.5,4.5-1.3,14.2-2.2,29.3c0.5,0,1.3,0.1,2.4,0.1c2.3,0,4.7-0.2,7.4-0.6
	c-0.2,2.7-0.3,4.6-0.3,5.6C186.4,139.1,186.5,140.3,186.8,141z"/>
<path class="st8" d="M216.4,121.5c0,0.8,0,1.6-0.1,2.4c-0.4,4.6-2,8.4-4.6,11.5c-2.6,3.1-5.6,4.7-9,4.7c-0.1,0-0.3,0-0.5,0
	c-0.2,0-0.4,0-0.5,0c-3.2-0.3-5.9-2-8.1-5.2s-3.2-6.8-3.2-11.2c0-0.8,0-1.6,0.1-2.4c0.4-4.6,2-8.4,4.6-11.5c2.6-3.1,5.6-4.7,9-4.7
	c0.1,0,0.3,0,0.5,0c0.2,0,0.4,0.1,0.5,0.1c3.2,0.3,5.9,2,8.1,5.2C215.4,113.4,216.4,117.1,216.4,121.5z M206.5,126.4
	c0-1-0.1-2.3-0.2-4c-0.2-3.9-0.7-7.1-1.5-9.8c-0.7-2.7-1.5-4-2.4-4h-0.1c-0.7,0-1.2,1-1.6,2.9c-0.4,1.9-0.6,4.4-0.6,7.3
	c0,1.4,0,2.7,0.1,4c0.2,3.8,0.7,7.1,1.5,9.8s1.6,4,2.4,4c0.7,0,1.2-1,1.7-2.9C206.3,131.8,206.5,129.4,206.5,126.4z"/>
<path class="st8" d="M246.6,137.2c0,2.7-1.6,5.5-4.7,8.5c-3.1,2.9-5.8,4.4-8.2,4.4c-0.1,0-0.2,0-0.2-0.1c-6.9-0.4-11.4-5.4-13.4-15
	l11,1.5c0.3,7.2,1.2,10.9,2.6,10.9c0.9,0,1.6-1.1,2.3-3.2c0.5-1.4,0.7-3,0.7-4.8c0-3.5-1.1-5.4-3.4-5.9c-3-0.5-6.1-1-9.1-1.6
	c-2.6-0.7-4-2.3-4-4.8c0-3.2,1.2-6.4,3.5-9.6c2.5-3.5,5.4-5.3,8.5-5.3c0.1,0,0.2,0,0.2,0c3.3,0.1,6.1,1.6,8.5,4.7
	c2.1,2.7,3.3,5.8,3.6,9.4l-9.8,1.9c0-0.4,0.1-1.1,0.1-1.9c0-6.6-0.7-9.9-2.2-9.9c-0.9,0-1.7,1.4-2.5,4.3c-0.6,2.1-0.9,3.9-0.9,5.3
	c0,3,1.4,4.5,4.3,4.5C242.2,130.6,246.6,132.8,246.6,137.2z"/>
<path class="st8" d="M273.3,103.2c-0.2,2-0.4,4.5-0.4,7.5c0,1.8,0.1,3.5,0.2,5.1c-2.6-0.5-6.5-0.8-11.9-0.8c-1.7,0-3,0.1-3.9,0.2
	l0.1,4.3l9.1,0.5l-0.2,2.9l-9,0.6c0,0.2,0,0.7-0.1,1.5c-0.1,0.7-0.1,1.4-0.1,2v1c0.4,0,0.8,0.1,1.3,0.1c5,0,9.7-0.3,14.3-0.9
	c-0.1,1.7-0.2,3.8-0.2,6.3c0,1.6,0.1,3.7,0.2,6.3c-4-0.2-10.9-0.6-20.7-1.3c0.4-5.3,0.6-11.3,0.6-18c0-2.2,0-3.9-0.1-5
	c-0.4,0-1.2,0.1-2.2,0.2c0.2-2.2,0.3-4.2,0.3-5.8c0-2.1-0.1-4.1-0.3-5.9c2,0.1,4.8,0.2,8.3,0.2C266.3,104,271.1,103.7,273.3,103.2z"
	/>
<path class="st8" d="M304.2,115.5c-3.7-0.7-7.2-1-10.6-1h-0.3c0.5,4.4,1.6,13.3,3.4,26.6h-12.2c0.7-5.1,1.2-9.3,1.6-12.6
	c0.8-6.7,1.3-12.4,1.6-17h-1.3c-2.2,0-5.3,0.3-9.3,0.9c0-0.2,0-1.2,0.1-2.7c0.1-1.2,0.1-2.1,0.1-2.9c0-1.6-0.1-2.9-0.4-3.6
	c2.2,0.4,4.7,0.5,7.5,0.5c1.4,0,4-0.1,8-0.2c0,0.5,0,1.4,0.1,2.7c1.6,0,3.7-0.2,6.2-0.6c1.8-0.4,3.6-0.7,5.3-1
	c-0.1,1.3-0.2,2.7-0.2,4.1C304,110.6,304.1,112.9,304.2,115.5z"/>
<ellipse class="st9" cx="-66.1" cy="-44.7" rx="57.2" ry="12.5"/>
<g>
	<path class="st6" d="M240.2,27.3c-0.2,10.1-22.1,13.5-29.9,15c-20.5,3.3-41.1,3.4-61.7,0.8c-8.7-1.4-24.4-3.7-29.7-11.4
		c-2.5-3.6-1.2-8.5,2.4-10.9c2.7-1.9,5.5-2.5,8.4-3.2c3.8-1,7.8-1.6,11.6-2.2c7.6-1.2,15.3-1.8,22.9-2.2
		C177.1,12.5,239.6,10.6,240.2,27.3L240.2,27.3z M233.3,27.3C233.3,27.4,233.4,27.5,233.3,27.3c-0.7-1-1.8-1.5-3-2.3
		c-6.4-3.2-13.8-4.6-20.9-5.8c-19.7-3.1-40-3.4-59.8-0.2c-7.1,1.2-14.7,2.6-20.6,6.7c-1,0.8-2,1.5-2.3,2.4c0,0,0,0,0,0
		c0,0,0.1-0.1,0.1-0.1c0-0.1,0.1-0.3,0.1-0.5c0.1-0.4-0.1-0.8-0.1-0.8c0,0,0.1,0,0.1,0.1c0.1,0.1,0.2,0.1,0.3,0.2
		C142.7,36.9,218.7,38.1,233.3,27.3L233.3,27.3z"/>
</g>
</svg>
