<?xml version="1.0" encoding="utf-8"?>
<!-- Generator: Adobe Illustrator 28.0.0, SVG Export Plug-In . SVG Version: 6.00 Build 0)  -->
<svg version="1.1" id="Layer_1" xmlns="http://www.w3.org/2000/svg" xmlns:xlink="http://www.w3.org/1999/xlink" x="0px" y="0px"
	 viewBox="0 0 100 100" style="enable-background:new 0 0 100 100;" xml:space="preserve">
<style type="text/css">
	.st0{fill:#CF85CA;}
</style>
<g>
	<path class="st0" d="M64.3,77.8c-3.8,2.1-10.6-0.5-17.8-5.4c-8,3-15.2,3.8-18.1,0.9c-3-2.8-2.3-9.9,0.3-17.8
		c-5.1-6.6-8-13.1-6.3-16.9c1.9-4,9.2-5.6,17.9-5.6c4.7-6.3,9.9-10.5,13.9-9.8c4.2,0.7,7.8,6.3,10.5,13.6c7.1,2.4,12.4,5.6,13.1,9.6
		c0.7,3.8-3,8.7-8.7,13.4C69.7,68.2,68.2,75.7,64.3,77.8z"/>
</g>
</svg>
